<svg xmlns="http://www.w3.org/2000/svg" height="337" width="960.0" font-size="16" font-family="sans-serif" stroke-width="2">
<g transform="translate(10.0 0)">
<text fill="hsl(0, 100%, 40%)" y="22">Shallow.shallow-100 274  μs</text>
<g>
<title>274  μs ± 9.0 μs</title>
<rect y="28" rx="5" height="22" width="1.454259679796243" fill="hsl(0, 100%, 80%)" stroke="hsl(0, 100%, 55%)" />
<g stroke="hsl(0, 100%, 40%)"><line x1="1.4067312194359387" x2="1.5017881401565474" y1="39" y2="39" />
<line x1="1.4067312194359387" x2="1.4067312194359387" y1="33" y2="45" />
<line x1="1.5017881401565474" x2="1.5017881401565474" y1="33" y2="45" />
</g>
</g>
<text fill="hsl(60, 100%, 40%)" y="77">Shallow.shallow-1_000 8.80 ms</text>
<g>
<title>8.80 ms ± 741 μs</title>
<rect y="83" rx="5" height="22" width="46.70380703689053" fill="hsl(60, 100%, 80%)" stroke="hsl(60, 100%, 55%)" />
<g stroke="hsl(60, 100%, 40%)"><line x1="42.76915923172924" x2="50.63845484205182" y1="94" y2="94" />
<line x1="42.76915923172924" x2="42.76915923172924" y1="88" y2="100" />
<line x1="50.63845484205182" x2="50.63845484205182" y1="88" y2="100" />
</g>
</g>
<g fill="hsl(120, 100%, 40%)">
<text y="132">Shallow.shallow-10_000</text>
<text y="132" x="291.3134593728733" text-anchor="end">54.9 ms</text>
</g>
<g>
<title>54.9 ms ± 378 μs</title>
<rect y="138" rx="5" height="22" width="291.3134593728733" fill="hsl(120, 100%, 80%)" stroke="hsl(120, 100%, 55%)" />
<g stroke="hsl(120, 100%, 40%)"><line x1="289.30485566894265" x2="293.32206307680394" y1="149" y2="149" />
<line x1="289.30485566894265" x2="289.30485566894265" y1="143" y2="155" />
<line x1="293.32206307680394" x2="293.32206307680394" y1="143" y2="155" />
</g>
</g>
<text fill="hsl(180, 100%, 40%)" y="187">Deep.deep-7 1.19 ms</text>
<g>
<title>1.19 ms ±  22 μs</title>
<rect y="193" rx="5" height="22" width="6.320805741822268" fill="hsl(180, 100%, 80%)" stroke="hsl(180, 100%, 55%)" />
<g stroke="hsl(180, 100%, 40%)"><line x1="6.204158788481469" x2="6.437452695163066" y1="204" y2="204" />
<line x1="6.204158788481469" x2="6.204158788481469" y1="198" y2="210" />
<line x1="6.437452695163066" x2="6.437452695163066" y1="198" y2="210" />
</g>
</g>
<text fill="hsl(240, 100%, 40%)" y="242">Deep.deep-10 16.8 ms</text>
<g>
<title>16.8 ms ± 1.5 ms</title>
<rect y="248" rx="5" height="22" width="89.0459872394598" fill="hsl(240, 100%, 80%)" stroke="hsl(240, 100%, 55%)" />
<g stroke="hsl(240, 100%, 40%)"><line x1="81.3028101513395" x2="96.78916432758011" y1="259" y2="259" />
<line x1="81.3028101513395" x2="81.3028101513395" y1="253" y2="265" />
<line x1="96.78916432758011" x2="96.78916432758011" y1="253" y2="265" />
</g>
</g>
<g fill="hsl(300, 100%, 40%)">
<text y="297">Deep.deep-13</text>
<text y="297" x="920.1349127131431" text-anchor="end">173  ms</text>
</g>
<g>
<title>173  ms ± 3.7 ms</title>
<rect y="303" rx="5" height="22" width="920.1349127131431" fill="hsl(300, 100%, 80%)" stroke="hsl(300, 100%, 55%)" />
<g stroke="hsl(300, 100%, 40%)"><line x1="900.2698254262862" x2="940.0" y1="314" y2="314" />
<line x1="900.2698254262862" x2="900.2698254262862" y1="308" y2="320" />
<line x1="940.0" x2="940.0" y1="308" y2="320" />
</g>
</g>
</g>
</svg>
