<svg xmlns="http://www.w3.org/2000/svg" height="337" width="960.0" font-size="16" font-family="sans-serif" stroke-width="2">
<g transform="translate(10.0 0)">
<text fill="hsl(0, 100%, 40%)" y="22">Shallow.shallow-100 3.74 ms</text>
<g>
<title>3.74 ms ± 366 μs</title>
<rect y="28" rx="5" height="22" width="1.2905084281232753" fill="hsl(0, 100%, 80%)" stroke="hsl(0, 100%, 55%)" />
<g stroke="hsl(0, 100%, 40%)"><line x1="1.1639052706089779" x2="1.4171115856375727" y1="39" y2="39" />
<line x1="1.1639052706089779" x2="1.1639052706089779" y1="33" y2="45" />
<line x1="1.4171115856375727" x2="1.4171115856375727" y1="33" y2="45" />
</g>
</g>
<text fill="hsl(60, 100%, 40%)" y="77">Shallow.shallow-1_000 46.1 ms</text>
<g>
<title>46.1 ms ± 3.1 ms</title>
<rect y="83" rx="5" height="22" width="15.920445298556055" fill="hsl(60, 100%, 80%)" stroke="hsl(60, 100%, 55%)" />
<g stroke="hsl(60, 100%, 40%)"><line x1="14.834614395911153" x2="17.006276201200958" y1="94" y2="94" />
<line x1="14.834614395911153" x2="14.834614395911153" y1="88" y2="100" />
<line x1="17.006276201200958" x2="17.006276201200958" y1="88" y2="100" />
</g>
</g>
<text fill="hsl(120, 100%, 40%)" y="132">Shallow.shallow-10_000 483  ms</text>
<g>
<title>483  ms ± 3.2 ms</title>
<rect y="138" rx="5" height="22" width="166.99410752227007" fill="hsl(120, 100%, 80%)" stroke="hsl(120, 100%, 55%)" />
<g stroke="hsl(120, 100%, 40%)"><line x1="165.90041585172557" x2="168.08779919281457" y1="149" y2="149" />
<line x1="165.90041585172557" x2="165.90041585172557" y1="143" y2="155" />
<line x1="168.08779919281457" x2="168.08779919281457" y1="143" y2="155" />
</g>
</g>
<text fill="hsl(180, 100%, 40%)" y="187">Deep.deep-7 20.0 ms</text>
<g>
<title>20.0 ms ± 385 μs</title>
<rect y="193" rx="5" height="22" width="6.920533957163097" fill="hsl(180, 100%, 80%)" stroke="hsl(180, 100%, 55%)" />
<g stroke="hsl(180, 100%, 40%)"><line x1="6.7873606344486035" x2="7.053707279877591" y1="204" y2="204" />
<line x1="6.7873606344486035" x2="6.7873606344486035" y1="198" y2="210" />
<line x1="7.053707279877591" x2="7.053707279877591" y1="198" y2="210" />
</g>
</g>
<text fill="hsl(240, 100%, 40%)" y="242">Deep.deep-10 232  ms</text>
<g>
<title>232  ms ± 8.6 ms</title>
<rect y="248" rx="5" height="22" width="80.26779944286834" fill="hsl(240, 100%, 80%)" stroke="hsl(240, 100%, 55%)" />
<g stroke="hsl(240, 100%, 40%)"><line x1="77.30230796649263" x2="83.23329091924404" y1="259" y2="259" />
<line x1="77.30230796649263" x2="77.30230796649263" y1="253" y2="265" />
<line x1="83.23329091924404" x2="83.23329091924404" y1="253" y2="265" />
</g>
</g>
<g fill="hsl(300, 100%, 40%)">
<text y="297">Deep.deep-13</text>
<text y="297" x="894.0584544519066" text-anchor="end">2.588 s</text>
</g>
<g>
<title>2.588 s ± 133 ms</title>
<rect y="303" rx="5" height="22" width="894.0584544519066" fill="hsl(300, 100%, 80%)" stroke="hsl(300, 100%, 55%)" />
<g stroke="hsl(300, 100%, 40%)"><line x1="848.1169089038133" x2="940.0" y1="314" y2="314" />
<line x1="848.1169089038133" x2="848.1169089038133" y1="308" y2="320" />
<line x1="940.0" x2="940.0" y1="308" y2="320" />
</g>
</g>
</g>
</svg>
