<svg xmlns="http://www.w3.org/2000/svg" height="337" width="960.0" font-size="16" font-family="sans-serif" stroke-width="2">
<g transform="translate(10.0 0)">
<text fill="hsl(0, 100%, 40%)" y="22">Shallow.shallow-100 1.04 ms</text>
<g>
<title>1.04 ms ±  86 μs</title>
<rect y="28" rx="5" height="22" width="2.39439320823889" fill="hsl(0, 100%, 80%)" stroke="hsl(0, 100%, 55%)" />
<g stroke="hsl(0, 100%, 40%)"><line x1="2.196870025123554" x2="2.5919163913542262" y1="39" y2="39" />
<line x1="2.196870025123554" x2="2.196870025123554" y1="33" y2="45" />
<line x1="2.5919163913542262" x2="2.5919163913542262" y1="33" y2="45" />
</g>
</g>
<text fill="hsl(60, 100%, 40%)" y="77">Shallow.shallow-1_000 13.1 ms</text>
<g>
<title>13.1 ms ± 964 μs</title>
<rect y="83" rx="5" height="22" width="30.300977141033272" fill="hsl(60, 100%, 80%)" stroke="hsl(60, 100%, 55%)" />
<g stroke="hsl(60, 100%, 40%)"><line x1="28.075222988987974" x2="32.52673129307857" y1="94" y2="94" />
<line x1="28.075222988987974" x2="28.075222988987974" y1="88" y2="100" />
<line x1="32.52673129307857" x2="32.52673129307857" y1="88" y2="100" />
</g>
</g>
<g fill="hsl(120, 100%, 40%)">
<text y="132">Shallow.shallow-10_000</text>
<text y="132" x="518.2864374734323" text-anchor="end">224  ms</text>
</g>
<g>
<title>224  ms ±  17 ms</title>
<rect y="138" rx="5" height="22" width="518.2864374734323" fill="hsl(120, 100%, 80%)" stroke="hsl(120, 100%, 55%)" />
<g stroke="hsl(120, 100%, 40%)"><line x1="479.03015623906555" x2="557.5427187077992" y1="149" y2="149" />
<line x1="479.03015623906555" x2="479.03015623906555" y1="143" y2="155" />
<line x1="557.5427187077992" x2="557.5427187077992" y1="143" y2="155" />
</g>
</g>
<text fill="hsl(180, 100%, 40%)" y="187">Deep.deep-7 4.25 ms</text>
<g>
<title>4.25 ms ± 195 μs</title>
<rect y="193" rx="5" height="22" width="9.820792283196983" fill="hsl(180, 100%, 80%)" stroke="hsl(180, 100%, 55%)" />
<g stroke="hsl(180, 100%, 40%)"><line x1="9.369869229081747" x2="10.27171533731222" y1="204" y2="204" />
<line x1="9.369869229081747" x2="9.369869229081747" y1="198" y2="210" />
<line x1="10.27171533731222" x2="10.27171533731222" y1="198" y2="210" />
</g>
</g>
<text fill="hsl(240, 100%, 40%)" y="242">Deep.deep-10 56.0 ms</text>
<g>
<title>56.0 ms ± 5.1 ms</title>
<rect y="248" rx="5" height="22" width="129.26418128262418" fill="hsl(240, 100%, 80%)" stroke="hsl(240, 100%, 55%)" />
<g stroke="hsl(240, 100%, 40%)"><line x1="117.52039798995207" x2="141.00796457529628" y1="259" y2="259" />
<line x1="117.52039798995207" x2="117.52039798995207" y1="253" y2="265" />
<line x1="141.00796457529628" x2="141.00796457529628" y1="253" y2="265" />
</g>
</g>
<g fill="hsl(300, 100%, 40%)">
<text y="297">Deep.deep-13</text>
<text y="297" x="934.765636107057" text-anchor="end">405  ms</text>
</g>
<g>
<title>405  ms ± 2.3 ms</title>
<rect y="303" rx="5" height="22" width="934.765636107057" fill="hsl(300, 100%, 80%)" stroke="hsl(300, 100%, 55%)" />
<g stroke="hsl(300, 100%, 40%)"><line x1="929.5312722141141" x2="940.0" y1="314" y2="314" />
<line x1="929.5312722141141" x2="929.5312722141141" y1="308" y2="320" />
<line x1="940.0" x2="940.0" y1="308" y2="320" />
</g>
</g>
</g>
</svg>
