<svg xmlns="http://www.w3.org/2000/svg" height="337" width="960.0" font-size="16" font-family="sans-serif" stroke-width="2">
<g transform="translate(10.0 0)">
<text fill="hsl(0, 100%, 40%)" y="22">Shallow.shallow-100 1.62 ms</text>
<g>
<title>1.62 ms ± 153 μs</title>
<rect y="28" rx="5" height="22" width="1.5520270333941324" fill="hsl(0, 100%, 80%)" stroke="hsl(0, 100%, 55%)" />
<g stroke="hsl(0, 100%, 40%)"><line x1="1.405217369726354" x2="1.6988366970619109" y1="39" y2="39" />
<line x1="1.405217369726354" x2="1.405217369726354" y1="33" y2="45" />
<line x1="1.6988366970619109" x2="1.6988366970619109" y1="33" y2="45" />
</g>
</g>
<text fill="hsl(60, 100%, 40%)" y="77">Shallow.shallow-1_000 18.0 ms</text>
<g>
<title>18.0 ms ± 1.3 ms</title>
<rect y="83" rx="5" height="22" width="17.202468739108113" fill="hsl(60, 100%, 80%)" stroke="hsl(60, 100%, 55%)" />
<g stroke="hsl(60, 100%, 40%)"><line x1="15.910078515946203" x2="18.494858962270023" y1="94" y2="94" />
<line x1="15.910078515946203" x2="15.910078515946203" y1="88" y2="100" />
<line x1="18.494858962270023" x2="18.494858962270023" y1="88" y2="100" />
</g>
</g>
<g fill="hsl(120, 100%, 40%)">
<text y="132">Shallow.shallow-10_000</text>
<text y="132" x="276.5083174248042" text-anchor="end">289  ms</text>
</g>
<g>
<title>289  ms ±  27 ms</title>
<rect y="138" rx="5" height="22" width="276.5083174248042" fill="hsl(120, 100%, 80%)" stroke="hsl(120, 100%, 55%)" />
<g stroke="hsl(120, 100%, 40%)"><line x1="251.04946209081623" x2="301.9671727587922" y1="149" y2="149" />
<line x1="251.04946209081623" x2="251.04946209081623" y1="143" y2="155" />
<line x1="301.9671727587922" x2="301.9671727587922" y1="143" y2="155" />
</g>
</g>
<text fill="hsl(180, 100%, 40%)" y="187">Deep.deep-7 7.53 ms</text>
<g>
<title>7.53 ms ± 587 μs</title>
<rect y="193" rx="5" height="22" width="7.211911826504205" fill="hsl(180, 100%, 80%)" stroke="hsl(180, 100%, 55%)" />
<g stroke="hsl(180, 100%, 40%)"><line x1="6.649011793698768" x2="7.774811859309643" y1="204" y2="204" />
<line x1="6.649011793698768" x2="6.649011793698768" y1="198" y2="210" />
<line x1="7.774811859309643" x2="7.774811859309643" y1="198" y2="210" />
</g>
</g>
<text fill="hsl(240, 100%, 40%)" y="242">Deep.deep-10 90.3 ms</text>
<g>
<title>90.3 ms ± 8.0 ms</title>
<rect y="248" rx="5" height="22" width="86.52342954370557" fill="hsl(240, 100%, 80%)" stroke="hsl(240, 100%, 55%)" />
<g stroke="hsl(240, 100%, 40%)"><line x1="78.82634158614628" x2="94.22051750126487" y1="259" y2="259" />
<line x1="78.82634158614628" x2="78.82634158614628" y1="253" y2="265" />
<line x1="94.22051750126487" x2="94.22051750126487" y1="253" y2="265" />
</g>
</g>
<g fill="hsl(300, 100%, 40%)">
<text y="297">Deep.deep-13</text>
<text y="297" x="923.8513297586162" text-anchor="end">964  ms</text>
</g>
<g>
<title>964  ms ±  17 ms</title>
<rect y="303" rx="5" height="22" width="923.8513297586162" fill="hsl(300, 100%, 80%)" stroke="hsl(300, 100%, 55%)" />
<g stroke="hsl(300, 100%, 40%)"><line x1="907.7026595172324" x2="940.0" y1="314" y2="314" />
<line x1="907.7026595172324" x2="907.7026595172324" y1="308" y2="320" />
<line x1="940.0" x2="940.0" y1="308" y2="320" />
</g>
</g>
</g>
</svg>
