<svg xmlns="http://www.w3.org/2000/svg" height="337" width="960.0" font-size="16" font-family="sans-serif" stroke-width="2">
<g transform="translate(10.0 0)">
<text fill="hsl(0, 100%, 40%)" y="22">Shallow.shallow-100 264  μs</text>
<g>
<title>264  μs ± 7.9 μs</title>
<rect y="28" rx="5" height="22" width="1.2341198721797493" fill="hsl(0, 100%, 80%)" stroke="hsl(0, 100%, 55%)" />
<g stroke="hsl(0, 100%, 40%)"><line x1="1.1971908127867565" x2="1.271048931572742" y1="39" y2="39" />
<line x1="1.1971908127867565" x2="1.1971908127867565" y1="33" y2="45" />
<line x1="1.271048931572742" x2="1.271048931572742" y1="33" y2="45" />
</g>
</g>
<text fill="hsl(60, 100%, 40%)" y="77">Shallow.shallow-1_000 3.75 ms</text>
<g>
<title>3.75 ms ±  54 μs</title>
<rect y="83" rx="5" height="22" width="17.529260608078822" fill="hsl(60, 100%, 80%)" stroke="hsl(60, 100%, 55%)" />
<g stroke="hsl(60, 100%, 40%)"><line x1="17.27514559349749" x2="17.783375622660152" y1="94" y2="94" />
<line x1="17.27514559349749" x2="17.27514559349749" y1="88" y2="100" />
<line x1="17.783375622660152" x2="17.783375622660152" y1="88" y2="100" />
</g>
</g>
<g fill="hsl(120, 100%, 40%)">
<text y="132">Shallow.shallow-10_000</text>
<text y="132" x="271.91107864860163" text-anchor="end">58.2 ms</text>
</g>
<g>
<title>58.2 ms ± 5.5 ms</title>
<rect y="138" rx="5" height="22" width="271.91107864860163" fill="hsl(120, 100%, 80%)" stroke="hsl(120, 100%, 55%)" />
<g stroke="hsl(120, 100%, 40%)"><line x1="246.1611966799251" x2="297.6609606172782" y1="149" y2="149" />
<line x1="246.1611966799251" x2="246.1611966799251" y1="143" y2="155" />
<line x1="297.6609606172782" x2="297.6609606172782" y1="143" y2="155" />
</g>
</g>
<text fill="hsl(180, 100%, 40%)" y="187">Deep.deep-7 1.36 ms</text>
<g>
<title>1.36 ms ± 113 μs</title>
<rect y="193" rx="5" height="22" width="6.346936366742007" fill="hsl(180, 100%, 80%)" stroke="hsl(180, 100%, 55%)" />
<g stroke="hsl(180, 100%, 40%)"><line x1="5.819755596377087" x2="6.874117137106927" y1="204" y2="204" />
<line x1="5.819755596377087" x2="5.819755596377087" y1="198" y2="210" />
<line x1="6.874117137106927" x2="6.874117137106927" y1="198" y2="210" />
</g>
</g>
<text fill="hsl(240, 100%, 40%)" y="242">Deep.deep-10 18.1 ms</text>
<g>
<title>18.1 ms ± 1.1 ms</title>
<rect y="248" rx="5" height="22" width="84.3755786781908" fill="hsl(240, 100%, 80%)" stroke="hsl(240, 100%, 55%)" />
<g stroke="hsl(240, 100%, 40%)"><line x1="79.1593317122632" x2="89.59182564411842" y1="259" y2="259" />
<line x1="79.1593317122632" x2="79.1593317122632" y1="253" y2="265" />
<line x1="89.59182564411842" x2="89.59182564411842" y1="253" y2="265" />
</g>
</g>
<g fill="hsl(300, 100%, 40%)">
<text y="297">Deep.deep-13</text>
<text y="297" x="895.899153673654" text-anchor="end">192  ms</text>
</g>
<g>
<title>192  ms ± 9.4 ms</title>
<rect y="303" rx="5" height="22" width="895.899153673654" fill="hsl(300, 100%, 80%)" stroke="hsl(300, 100%, 55%)" />
<g stroke="hsl(300, 100%, 40%)"><line x1="851.7983073473081" x2="940.0" y1="314" y2="314" />
<line x1="851.7983073473081" x2="851.7983073473081" y1="308" y2="320" />
<line x1="940.0" x2="940.0" y1="308" y2="320" />
</g>
</g>
</g>
</svg>
