<svg xmlns="http://www.w3.org/2000/svg" height="337" width="960.0" font-size="16" font-family="sans-serif" stroke-width="2">
<g transform="translate(10.0 0)">
<text fill="hsl(0, 100%, 40%)" y="22">Shallow.shallow-100 295  μs</text>
<g>
<title>295  μs ±  28 μs</title>
<rect y="28" rx="5" height="22" width="1.8576706575838018" fill="hsl(0, 100%, 80%)" stroke="hsl(0, 100%, 55%)" />
<g stroke="hsl(0, 100%, 40%)"><line x1="1.682171945708969" x2="2.033169369458635" y1="39" y2="39" />
<line x1="1.682171945708969" x2="1.682171945708969" y1="33" y2="45" />
<line x1="2.033169369458635" x2="2.033169369458635" y1="33" y2="45" />
</g>
</g>
<text fill="hsl(60, 100%, 40%)" y="77">Shallow.shallow-1_000 3.14 ms</text>
<g>
<title>3.14 ms ± 114 μs</title>
<rect y="83" rx="5" height="22" width="19.747786146406767" fill="hsl(60, 100%, 80%)" stroke="hsl(60, 100%, 55%)" />
<g stroke="hsl(60, 100%, 40%)"><line x1="19.028572552999965" x2="20.46699973981357" y1="94" y2="94" />
<line x1="19.028572552999965" x2="19.028572552999965" y1="88" y2="100" />
<line x1="20.46699973981357" x2="20.46699973981357" y1="88" y2="100" />
</g>
</g>
<g fill="hsl(120, 100%, 40%)">
<text y="132">Shallow.shallow-10_000</text>
<text y="132" x="361.2374212953" text-anchor="end">57.5 ms</text>
</g>
<g>
<title>57.5 ms ± 4.3 ms</title>
<rect y="138" rx="5" height="22" width="361.2374212953" fill="hsl(120, 100%, 80%)" stroke="hsl(120, 100%, 55%)" />
<g stroke="hsl(120, 100%, 40%)"><line x1="334.4162441679431" x2="388.0585984226569" y1="149" y2="149" />
<line x1="334.4162441679431" x2="334.4162441679431" y1="143" y2="155" />
<line x1="388.0585984226569" x2="388.0585984226569" y1="143" y2="155" />
</g>
</g>
<text fill="hsl(180, 100%, 40%)" y="187">Deep.deep-7 1.16 ms</text>
<g>
<title>1.16 ms ±  89 μs</title>
<rect y="193" rx="5" height="22" width="7.272369395680701" fill="hsl(180, 100%, 80%)" stroke="hsl(180, 100%, 55%)" />
<g stroke="hsl(180, 100%, 40%)"><line x1="6.711201806136046" x2="7.833536985225356" y1="204" y2="204" />
<line x1="6.711201806136046" x2="6.711201806136046" y1="198" y2="210" />
<line x1="7.833536985225356" x2="7.833536985225356" y1="198" y2="210" />
</g>
</g>
<text fill="hsl(240, 100%, 40%)" y="242">Deep.deep-10 12.8 ms</text>
<g>
<title>12.8 ms ± 898 μs</title>
<rect y="248" rx="5" height="22" width="80.50857265811298" fill="hsl(240, 100%, 80%)" stroke="hsl(240, 100%, 55%)" />
<g stroke="hsl(240, 100%, 40%)"><line x1="74.86256357811853" x2="86.15458173810744" y1="259" y2="259" />
<line x1="74.86256357811853" x2="74.86256357811853" y1="253" y2="265" />
<line x1="86.15458173810744" x2="86.15458173810744" y1="253" y2="265" />
</g>
</g>
<g fill="hsl(300, 100%, 40%)">
<text y="297">Deep.deep-13</text>
<text y="297" x="903.1168406905914" text-anchor="end">144  ms</text>
</g>
<g>
<title>144  ms ± 5.9 ms</title>
<rect y="303" rx="5" height="22" width="903.1168406905914" fill="hsl(300, 100%, 80%)" stroke="hsl(300, 100%, 55%)" />
<g stroke="hsl(300, 100%, 40%)"><line x1="866.2336813811828" x2="940.0" y1="314" y2="314" />
<line x1="866.2336813811828" x2="866.2336813811828" y1="308" y2="320" />
<line x1="940.0" x2="940.0" y1="308" y2="320" />
</g>
</g>
</g>
</svg>
