<svg xmlns="http://www.w3.org/2000/svg" height="337" width="960.0" font-size="16" font-family="sans-serif" stroke-width="2">
<g transform="translate(10.0 0)">
<text fill="hsl(0, 100%, 40%)" y="22">Shallow.shallow-100 282  μs</text>
<g>
<title>282  μs ±  18 μs</title>
<rect y="28" rx="5" height="22" width="1.4977861750998291" fill="hsl(0, 100%, 80%)" stroke="hsl(0, 100%, 55%)" />
<g stroke="hsl(0, 100%, 40%)"><line x1="1.4001563238379384" x2="1.5954160263617199" y1="39" y2="39" />
<line x1="1.4001563238379384" x2="1.4001563238379384" y1="33" y2="45" />
<line x1="1.5954160263617199" x2="1.5954160263617199" y1="33" y2="45" />
</g>
</g>
<text fill="hsl(60, 100%, 40%)" y="77">Shallow.shallow-1_000 2.99 ms</text>
<g>
<title>2.99 ms ± 185 μs</title>
<rect y="83" rx="5" height="22" width="15.881593474096203" fill="hsl(60, 100%, 80%)" stroke="hsl(60, 100%, 55%)" />
<g stroke="hsl(60, 100%, 40%)"><line x1="14.90242494120969" x2="16.860762006982718" y1="94" y2="94" />
<line x1="14.90242494120969" x2="14.90242494120969" y1="88" y2="100" />
<line x1="16.860762006982718" x2="16.860762006982718" y1="88" y2="100" />
</g>
</g>
<g fill="hsl(120, 100%, 40%)">
<text y="132">Shallow.shallow-10_000</text>
<text y="132" x="324.6077712811273" text-anchor="end">61.2 ms</text>
</g>
<g>
<title>61.2 ms ± 5.2 ms</title>
<rect y="138" rx="5" height="22" width="324.6077712811273" fill="hsl(120, 100%, 80%)" stroke="hsl(120, 100%, 55%)" />
<g stroke="hsl(120, 100%, 40%)"><line x1="296.82382474721396" x2="352.3917178150407" y1="149" y2="149" />
<line x1="296.82382474721396" x2="296.82382474721396" y1="143" y2="155" />
<line x1="352.3917178150407" x2="352.3917178150407" y1="143" y2="155" />
</g>
</g>
<text fill="hsl(180, 100%, 40%)" y="187">Deep.deep-7 1.22 ms</text>
<g>
<title>1.22 ms ±  60 μs</title>
<rect y="193" rx="5" height="22" width="6.447430139659697" fill="hsl(180, 100%, 80%)" stroke="hsl(180, 100%, 55%)" />
<g stroke="hsl(180, 100%, 40%)"><line x1="6.131442345407155" x2="6.763417933912239" y1="204" y2="204" />
<line x1="6.131442345407155" x2="6.131442345407155" y1="198" y2="210" />
<line x1="6.763417933912239" x2="6.763417933912239" y1="198" y2="210" />
</g>
</g>
<text fill="hsl(240, 100%, 40%)" y="242">Deep.deep-10 15.8 ms</text>
<g>
<title>15.8 ms ± 1.1 ms</title>
<rect y="248" rx="5" height="22" width="83.74284769035765" fill="hsl(240, 100%, 80%)" stroke="hsl(240, 100%, 55%)" />
<g stroke="hsl(240, 100%, 40%)"><line x1="77.77893713131768" x2="89.70675824939762" y1="259" y2="259" />
<line x1="77.77893713131768" x2="77.77893713131768" y1="253" y2="265" />
<line x1="89.70675824939762" x2="89.70675824939762" y1="253" y2="265" />
</g>
</g>
<g fill="hsl(300, 100%, 40%)">
<text y="297">Deep.deep-13</text>
<text y="297" x="931.1287179679213" text-anchor="end">176  ms</text>
</g>
<g>
<title>176  ms ± 1.7 ms</title>
<rect y="303" rx="5" height="22" width="931.1287179679213" fill="hsl(300, 100%, 80%)" stroke="hsl(300, 100%, 55%)" />
<g stroke="hsl(300, 100%, 40%)"><line x1="922.2574359358425" x2="940.0" y1="314" y2="314" />
<line x1="922.2574359358425" x2="922.2574359358425" y1="308" y2="320" />
<line x1="940.0" x2="940.0" y1="308" y2="320" />
</g>
</g>
</g>
</svg>
