<svg xmlns="http://www.w3.org/2000/svg" height="337" width="960.0" font-size="16" font-family="sans-serif" stroke-width="2">
<g transform="translate(10.0 0)">
<text fill="hsl(0, 100%, 40%)" y="22">Shallow.shallow-100 285  μs</text>
<g>
<title>285  μs ±  24 μs</title>
<rect y="28" rx="5" height="22" width="1.798666368706506" fill="hsl(0, 100%, 80%)" stroke="hsl(0, 100%, 55%)" />
<g stroke="hsl(0, 100%, 40%)"><line x1="1.6480895082020788" x2="1.9492432292109334" y1="39" y2="39" />
<line x1="1.6480895082020788" x2="1.6480895082020788" y1="33" y2="45" />
<line x1="1.9492432292109334" x2="1.9492432292109334" y1="33" y2="45" />
</g>
</g>
<text fill="hsl(60, 100%, 40%)" y="77">Shallow.shallow-1_000 3.01 ms</text>
<g>
<title>3.01 ms ± 111 μs</title>
<rect y="83" rx="5" height="22" width="19.00587714716577" fill="hsl(60, 100%, 80%)" stroke="hsl(60, 100%, 55%)" />
<g stroke="hsl(60, 100%, 40%)"><line x1="18.304719172926468" x2="19.70703512140507" y1="94" y2="94" />
<line x1="18.304719172926468" x2="18.304719172926468" y1="88" y2="100" />
<line x1="19.70703512140507" x2="19.70703512140507" y1="88" y2="100" />
</g>
</g>
<g fill="hsl(120, 100%, 40%)">
<text y="132">Shallow.shallow-10_000</text>
<text y="132" x="338.7804598973036" text-anchor="end">53.6 ms</text>
</g>
<g>
<title>53.6 ms ± 3.7 ms</title>
<rect y="138" rx="5" height="22" width="338.7804598973036" fill="hsl(120, 100%, 80%)" stroke="hsl(120, 100%, 55%)" />
<g stroke="hsl(120, 100%, 40%)"><line x1="315.3848305405165" x2="362.17608925409075" y1="149" y2="149" />
<line x1="315.3848305405165" x2="315.3848305405165" y1="143" y2="155" />
<line x1="362.17608925409075" x2="362.17608925409075" y1="143" y2="155" />
</g>
</g>
<text fill="hsl(180, 100%, 40%)" y="187">Deep.deep-7 1.10 ms</text>
<g>
<title>1.10 ms ±  92 μs</title>
<rect y="193" rx="5" height="22" width="6.966172734982968" fill="hsl(180, 100%, 80%)" stroke="hsl(180, 100%, 55%)" />
<g stroke="hsl(180, 100%, 40%)"><line x1="6.3874541395727435" x2="7.544891330393193" y1="204" y2="204" />
<line x1="6.3874541395727435" x2="6.3874541395727435" y1="198" y2="210" />
<line x1="7.544891330393193" x2="7.544891330393193" y1="198" y2="210" />
</g>
</g>
<text fill="hsl(240, 100%, 40%)" y="242">Deep.deep-10 12.0 ms</text>
<g>
<title>12.0 ms ± 1.0 ms</title>
<rect y="248" rx="5" height="22" width="76.05095058341499" fill="hsl(240, 100%, 80%)" stroke="hsl(240, 100%, 55%)" />
<g stroke="hsl(240, 100%, 40%)"><line x1="69.68297616061915" x2="82.41892500621083" y1="259" y2="259" />
<line x1="69.68297616061915" x2="69.68297616061915" y1="253" y2="265" />
<line x1="82.41892500621083" x2="82.41892500621083" y1="253" y2="265" />
</g>
</g>
<g fill="hsl(300, 100%, 40%)">
<text y="297">Deep.deep-13</text>
<text y="297" x="859.6406874699841" text-anchor="end">136  ms</text>
</g>
<g>
<title>136  ms ±  13 ms</title>
<rect y="303" rx="5" height="22" width="859.6406874699841" fill="hsl(300, 100%, 80%)" stroke="hsl(300, 100%, 55%)" />
<g stroke="hsl(300, 100%, 40%)"><line x1="779.2813749399681" x2="940.0" y1="314" y2="314" />
<line x1="779.2813749399681" x2="779.2813749399681" y1="308" y2="320" />
<line x1="940.0" x2="940.0" y1="308" y2="320" />
</g>
</g>
</g>
</svg>
