<svg xmlns="http://www.w3.org/2000/svg" height="337" width="960.0" font-size="16" font-family="sans-serif" stroke-width="2">
<g transform="translate(10.0 0)">
<text fill="hsl(0, 100%, 40%)" y="22">Shallow.shallow-100 1.93 ms</text>
<g>
<title>1.93 ms ± 191 μs</title>
<rect y="28" rx="5" height="22" width="1.5218234450964057" fill="hsl(0, 100%, 80%)" stroke="hsl(0, 100%, 55%)" />
<g stroke="hsl(0, 100%, 40%)"><line x1="1.371044948946208" x2="1.6726019412466033" y1="39" y2="39" />
<line x1="1.371044948946208" x2="1.371044948946208" y1="33" y2="45" />
<line x1="1.6726019412466033" x2="1.6726019412466033" y1="33" y2="45" />
</g>
</g>
<text fill="hsl(60, 100%, 40%)" y="77">Shallow.shallow-1_000 24.8 ms</text>
<g>
<title>24.8 ms ± 2.2 ms</title>
<rect y="83" rx="5" height="22" width="19.518643758997747" fill="hsl(60, 100%, 80%)" stroke="hsl(60, 100%, 55%)" />
<g stroke="hsl(60, 100%, 40%)"><line x1="17.808394895711203" x2="21.22889262228429" y1="94" y2="94" />
<line x1="17.808394895711203" x2="17.808394895711203" y1="88" y2="100" />
<line x1="21.22889262228429" x2="21.22889262228429" y1="88" y2="100" />
</g>
</g>
<text fill="hsl(120, 100%, 40%)" y="132">Shallow.shallow-10_000 264  ms</text>
<g>
<title>264  ms ±  11 ms</title>
<rect y="138" rx="5" height="22" width="208.13557353831888" fill="hsl(120, 100%, 80%)" stroke="hsl(120, 100%, 55%)" />
<g stroke="hsl(120, 100%, 40%)"><line x1="199.4456820886206" x2="216.82546498801716" y1="149" y2="149" />
<line x1="199.4456820886206" x2="199.4456820886206" y1="143" y2="155" />
<line x1="216.82546498801716" x2="216.82546498801716" y1="143" y2="155" />
</g>
</g>
<text fill="hsl(180, 100%, 40%)" y="187">Deep.deep-7 9.09 ms</text>
<g>
<title>9.09 ms ± 704 μs</title>
<rect y="193" rx="5" height="22" width="7.164684703200522" fill="hsl(180, 100%, 80%)" stroke="hsl(180, 100%, 55%)" />
<g stroke="hsl(180, 100%, 40%)"><line x1="6.609823003828965" x2="7.719546402572079" y1="204" y2="204" />
<line x1="6.609823003828965" x2="6.609823003828965" y1="198" y2="210" />
<line x1="7.719546402572079" x2="7.719546402572079" y1="198" y2="210" />
</g>
</g>
<text fill="hsl(240, 100%, 40%)" y="242">Deep.deep-10 102  ms</text>
<g>
<title>102  ms ± 5.0 ms</title>
<rect y="248" rx="5" height="22" width="80.62814179449843" fill="hsl(240, 100%, 80%)" stroke="hsl(240, 100%, 55%)" />
<g stroke="hsl(240, 100%, 40%)"><line x1="76.68962501030761" x2="84.56665857868926" y1="259" y2="259" />
<line x1="76.68962501030761" x2="76.68962501030761" y1="253" y2="265" />
<line x1="84.56665857868926" x2="84.56665857868926" y1="253" y2="265" />
</g>
</g>
<g fill="hsl(300, 100%, 40%)">
<text y="297">Deep.deep-13</text>
<text y="297" x="936.2308343570062" text-anchor="end">1.188 s</text>
</g>
<g>
<title>1.188 s ± 4.8 ms</title>
<rect y="303" rx="5" height="22" width="936.2308343570062" fill="hsl(300, 100%, 80%)" stroke="hsl(300, 100%, 55%)" />
<g stroke="hsl(300, 100%, 40%)"><line x1="932.4616687140124" x2="940.0" y1="314" y2="314" />
<line x1="932.4616687140124" x2="932.4616687140124" y1="308" y2="320" />
<line x1="940.0" x2="940.0" y1="308" y2="320" />
</g>
</g>
</g>
</svg>
