<svg xmlns="http://www.w3.org/2000/svg" height="337" width="960.0" font-size="16" font-family="sans-serif" stroke-width="2">
<g transform="translate(10.0 0)">
<text fill="hsl(0, 100%, 40%)" y="22">Shallow.shallow-100 293  μs</text>
<g>
<title>293  μs ±  29 μs</title>
<rect y="28" rx="5" height="22" width="1.2844734163416414" fill="hsl(0, 100%, 80%)" stroke="hsl(0, 100%, 55%)" />
<g stroke="hsl(0, 100%, 40%)"><line x1="1.1580113529256433" x2="1.4109354797576394" y1="39" y2="39" />
<line x1="1.1580113529256433" x2="1.1580113529256433" y1="33" y2="45" />
<line x1="1.4109354797576394" x2="1.4109354797576394" y1="33" y2="45" />
</g>
</g>
<text fill="hsl(60, 100%, 40%)" y="77">Shallow.shallow-1_000 3.05 ms</text>
<g>
<title>3.05 ms ±  88 μs</title>
<rect y="83" rx="5" height="22" width="13.388607170022965" fill="hsl(60, 100%, 80%)" stroke="hsl(60, 100%, 55%)" />
<g stroke="hsl(60, 100%, 40%)"><line x1="13.00063852606091" x2="13.77657581398502" y1="94" y2="94" />
<line x1="13.00063852606091" x2="13.00063852606091" y1="88" y2="100" />
<line x1="13.77657581398502" x2="13.77657581398502" y1="88" y2="100" />
</g>
</g>
<text fill="hsl(120, 100%, 40%)" y="132">Shallow.shallow-10_000 51.5 ms</text>
<g>
<title>51.5 ms ± 4.2 ms</title>
<rect y="138" rx="5" height="22" width="226.22688112929401" fill="hsl(120, 100%, 80%)" stroke="hsl(120, 100%, 55%)" />
<g stroke="hsl(120, 100%, 40%)"><line x1="207.73286031036164" x2="244.72090194822638" y1="149" y2="149" />
<line x1="207.73286031036164" x2="207.73286031036164" y1="143" y2="155" />
<line x1="244.72090194822638" x2="244.72090194822638" y1="143" y2="155" />
</g>
</g>
<text fill="hsl(180, 100%, 40%)" y="187">Deep.deep-7 1.50 ms</text>
<g>
<title>1.50 ms ±  85 μs</title>
<rect y="193" rx="5" height="22" width="6.591878979615379" fill="hsl(180, 100%, 80%)" stroke="hsl(180, 100%, 55%)" />
<g stroke="hsl(180, 100%, 40%)"><line x1="6.219148802066698" x2="6.964609157164061" y1="204" y2="204" />
<line x1="6.219148802066698" x2="6.219148802066698" y1="198" y2="210" />
<line x1="6.964609157164061" x2="6.964609157164061" y1="198" y2="210" />
</g>
</g>
<text fill="hsl(240, 100%, 40%)" y="242">Deep.deep-10 18.5 ms</text>
<g>
<title>18.5 ms ± 1.6 ms</title>
<rect y="248" rx="5" height="22" width="81.07554727766215" fill="hsl(240, 100%, 80%)" stroke="hsl(240, 100%, 55%)" />
<g stroke="hsl(240, 100%, 40%)"><line x1="73.89391050126186" x2="88.25718405406245" y1="259" y2="259" />
<line x1="73.89391050126186" x2="73.89391050126186" y1="253" y2="265" />
<line x1="88.25718405406245" x2="88.25718405406245" y1="253" y2="265" />
</g>
</g>
<g fill="hsl(300, 100%, 40%)">
<text y="297">Deep.deep-13</text>
<text y="297" x="902.804278143047" text-anchor="end">206  ms</text>
</g>
<g>
<title>206  ms ± 8.5 ms</title>
<rect y="303" rx="5" height="22" width="902.804278143047" fill="hsl(300, 100%, 80%)" stroke="hsl(300, 100%, 55%)" />
<g stroke="hsl(300, 100%, 40%)"><line x1="865.608556286094" x2="940.0" y1="314" y2="314" />
<line x1="865.608556286094" x2="865.608556286094" y1="308" y2="320" />
<line x1="940.0" x2="940.0" y1="308" y2="320" />
</g>
</g>
</g>
</svg>
