<svg xmlns="http://www.w3.org/2000/svg" height="337" width="960.0" font-size="16" font-family="sans-serif" stroke-width="2">
<g transform="translate(10.0 0)">
<text fill="hsl(0, 100%, 40%)" y="22">Shallow.shallow-100 379  μs</text>
<g>
<title>379  μs ±  11 μs</title>
<rect y="28" rx="5" height="22" width="1.2545878514230582" fill="hsl(0, 100%, 80%)" stroke="hsl(0, 100%, 55%)" />
<g stroke="hsl(0, 100%, 40%)"><line x1="1.2165122557839056" x2="1.2926634470622107" y1="39" y2="39" />
<line x1="1.2165122557839056" x2="1.2165122557839056" y1="33" y2="45" />
<line x1="1.2926634470622107" x2="1.2926634470622107" y1="33" y2="45" />
</g>
</g>
<text fill="hsl(60, 100%, 40%)" y="77">Shallow.shallow-1_000 4.21 ms</text>
<g>
<title>4.21 ms ± 371 μs</title>
<rect y="83" rx="5" height="22" width="13.927382247316563" fill="hsl(60, 100%, 80%)" stroke="hsl(60, 100%, 55%)" />
<g stroke="hsl(60, 100%, 40%)"><line x1="12.699806239609902" x2="15.154958255023224" y1="94" y2="94" />
<line x1="12.699806239609902" x2="12.699806239609902" y1="88" y2="100" />
<line x1="15.154958255023224" x2="15.154958255023224" y1="88" y2="100" />
</g>
</g>
<g fill="hsl(120, 100%, 40%)">
<text y="132">Shallow.shallow-10_000</text>
<text y="132" x="263.93228691549626" text-anchor="end">79.7 ms</text>
</g>
<g>
<title>79.7 ms ± 2.1 ms</title>
<rect y="138" rx="5" height="22" width="263.93228691549626" fill="hsl(120, 100%, 80%)" stroke="hsl(120, 100%, 55%)" />
<g stroke="hsl(120, 100%, 40%)"><line x1="257.01980389555956" x2="270.84476993543296" y1="149" y2="149" />
<line x1="257.01980389555956" x2="257.01980389555956" y1="143" y2="155" />
<line x1="270.84476993543296" x2="270.84476993543296" y1="143" y2="155" />
</g>
</g>
<text fill="hsl(180, 100%, 40%)" y="187">Deep.deep-7 1.74 ms</text>
<g>
<title>1.74 ms ±  96 μs</title>
<rect y="193" rx="5" height="22" width="5.775774032159835" fill="hsl(180, 100%, 80%)" stroke="hsl(180, 100%, 55%)" />
<g stroke="hsl(180, 100%, 40%)"><line x1="5.457862764217811" x2="6.093685300101859" y1="204" y2="204" />
<line x1="5.457862764217811" x2="5.457862764217811" y1="198" y2="210" />
<line x1="6.093685300101859" x2="6.093685300101859" y1="198" y2="210" />
</g>
</g>
<text fill="hsl(240, 100%, 40%)" y="242">Deep.deep-10 23.3 ms</text>
<g>
<title>23.3 ms ± 1.6 ms</title>
<rect y="248" rx="5" height="22" width="77.12412110455546" fill="hsl(240, 100%, 80%)" stroke="hsl(240, 100%, 55%)" />
<g stroke="hsl(240, 100%, 40%)"><line x1="71.7665142453278" x2="82.48172796378311" y1="259" y2="259" />
<line x1="71.7665142453278" x2="71.7665142453278" y1="253" y2="265" />
<line x1="82.48172796378311" x2="82.48172796378311" y1="253" y2="265" />
</g>
</g>
<g fill="hsl(300, 100%, 40%)">
<text y="297">Deep.deep-13</text>
<text y="297" x="863.3009457479158" text-anchor="end">261  ms</text>
</g>
<g>
<title>261  ms ±  23 ms</title>
<rect y="303" rx="5" height="22" width="863.3009457479158" fill="hsl(300, 100%, 80%)" stroke="hsl(300, 100%, 55%)" />
<g stroke="hsl(300, 100%, 40%)"><line x1="786.6018914958315" x2="940.0" y1="314" y2="314" />
<line x1="786.6018914958315" x2="786.6018914958315" y1="308" y2="320" />
<line x1="940.0" x2="940.0" y1="308" y2="320" />
</g>
</g>
</g>
</svg>
