<svg xmlns="http://www.w3.org/2000/svg" height="337" width="960.0" font-size="16" font-family="sans-serif" stroke-width="2">
<g transform="translate(10.0 0)">
<text fill="hsl(0, 100%, 40%)" y="22">Shallow.shallow-100 282  μs</text>
<g>
<title>282  μs ± 4.1 μs</title>
<rect y="28" rx="5" height="22" width="1.4474950256704444" fill="hsl(0, 100%, 80%)" stroke="hsl(0, 100%, 55%)" />
<g stroke="hsl(0, 100%, 40%)"><line x1="1.4265750735882028" x2="1.468414977752686" y1="39" y2="39" />
<line x1="1.4265750735882028" x2="1.4265750735882028" y1="33" y2="45" />
<line x1="1.468414977752686" x2="1.468414977752686" y1="33" y2="45" />
</g>
</g>
<text fill="hsl(60, 100%, 40%)" y="77">Shallow.shallow-1_000 2.98 ms</text>
<g>
<title>2.98 ms ±  60 μs</title>
<rect y="83" rx="5" height="22" width="15.288681904794954" fill="hsl(60, 100%, 80%)" stroke="hsl(60, 100%, 55%)" />
<g stroke="hsl(60, 100%, 40%)"><line x1="14.980769461116155" x2="15.596594348473753" y1="94" y2="94" />
<line x1="14.980769461116155" x2="14.980769461116155" y1="88" y2="100" />
<line x1="15.596594348473753" x2="15.596594348473753" y1="88" y2="100" />
</g>
</g>
<g fill="hsl(120, 100%, 40%)">
<text y="132">Shallow.shallow-10_000</text>
<text y="132" x="307.8826840301205" text-anchor="end">60.0 ms</text>
</g>
<g>
<title>60.0 ms ± 4.8 ms</title>
<rect y="138" rx="5" height="22" width="307.8826840301205" fill="hsl(120, 100%, 80%)" stroke="hsl(120, 100%, 55%)" />
<g stroke="hsl(120, 100%, 40%)"><line x1="283.3877732031266" x2="332.37759485711445" y1="149" y2="149" />
<line x1="283.3877732031266" x2="283.3877732031266" y1="143" y2="155" />
<line x1="332.37759485711445" x2="332.37759485711445" y1="143" y2="155" />
</g>
</g>
<text fill="hsl(180, 100%, 40%)" y="187">Deep.deep-7 1.20 ms</text>
<g>
<title>1.20 ms ±  31 μs</title>
<rect y="193" rx="5" height="22" width="6.131075693006149" fill="hsl(180, 100%, 80%)" stroke="hsl(180, 100%, 55%)" />
<g stroke="hsl(180, 100%, 40%)"><line x1="5.970027587309929" x2="6.29212379870237" y1="204" y2="204" />
<line x1="5.970027587309929" x2="5.970027587309929" y1="198" y2="210" />
<line x1="6.29212379870237" x2="6.29212379870237" y1="198" y2="210" />
</g>
</g>
<text fill="hsl(240, 100%, 40%)" y="242">Deep.deep-10 18.6 ms</text>
<g>
<title>18.6 ms ± 1.6 ms</title>
<rect y="248" rx="5" height="22" width="95.28406532148006" fill="hsl(240, 100%, 80%)" stroke="hsl(240, 100%, 55%)" />
<g stroke="hsl(240, 100%, 40%)"><line x1="87.02448834187648" x2="103.54364230108364" y1="259" y2="259" />
<line x1="87.02448834187648" x2="87.02448834187648" y1="253" y2="265" />
<line x1="103.54364230108364" x2="103.54364230108364" y1="253" y2="265" />
</g>
</g>
<g fill="hsl(300, 100%, 40%)">
<text y="297">Deep.deep-13</text>
<text y="297" x="898.7993612919711" text-anchor="end">175  ms</text>
</g>
<g>
<title>175  ms ± 8.0 ms</title>
<rect y="303" rx="5" height="22" width="898.7993612919711" fill="hsl(300, 100%, 80%)" stroke="hsl(300, 100%, 55%)" />
<g stroke="hsl(300, 100%, 40%)"><line x1="857.5987225839422" x2="940.0" y1="314" y2="314" />
<line x1="857.5987225839422" x2="857.5987225839422" y1="308" y2="320" />
<line x1="940.0" x2="940.0" y1="308" y2="320" />
</g>
</g>
</g>
</svg>
