<svg xmlns="http://www.w3.org/2000/svg" height="337" width="960.0" font-size="16" font-family="sans-serif" stroke-width="2">
<g transform="translate(10.0 0)">
<text fill="hsl(0, 100%, 40%)" y="22">Shallow.shallow-100 1.28 ms</text>
<g>
<title>1.28 ms ± 127 μs</title>
<rect y="28" rx="5" height="22" width="1.7040819804068719" fill="hsl(0, 100%, 80%)" stroke="hsl(0, 100%, 55%)" />
<g stroke="hsl(0, 100%, 40%)"><line x1="1.535654584483142" x2="1.8725093763306018" y1="39" y2="39" />
<line x1="1.535654584483142" x2="1.535654584483142" y1="33" y2="45" />
<line x1="1.8725093763306018" x2="1.8725093763306018" y1="33" y2="45" />
</g>
</g>
<text fill="hsl(60, 100%, 40%)" y="77">Shallow.shallow-1_000 13.2 ms</text>
<g>
<title>13.2 ms ± 1.2 ms</title>
<rect y="83" rx="5" height="22" width="17.571938147391254" fill="hsl(60, 100%, 80%)" stroke="hsl(60, 100%, 55%)" />
<g stroke="hsl(60, 100%, 40%)"><line x1="15.944194984437953" x2="19.199681310344555" y1="94" y2="94" />
<line x1="15.944194984437953" x2="15.944194984437953" y1="88" y2="100" />
<line x1="19.199681310344555" x2="19.199681310344555" y1="88" y2="100" />
</g>
</g>
<g fill="hsl(120, 100%, 40%)">
<text y="132">Shallow.shallow-10_000</text>
<text y="132" x="316.3980929584496" text-anchor="end">238  ms</text>
</g>
<g>
<title>238  ms ±  15 ms</title>
<rect y="138" rx="5" height="22" width="316.3980929584496" fill="hsl(120, 100%, 80%)" stroke="hsl(120, 100%, 55%)" />
<g stroke="hsl(120, 100%, 40%)"><line x1="296.16379688776493" x2="336.63238902913423" y1="149" y2="149" />
<line x1="296.16379688776493" x2="296.16379688776493" y1="143" y2="155" />
<line x1="336.63238902913423" x2="336.63238902913423" y1="143" y2="155" />
</g>
</g>
<text fill="hsl(180, 100%, 40%)" y="187">Deep.deep-7 5.44 ms</text>
<g>
<title>5.44 ms ± 503 μs</title>
<rect y="193" rx="5" height="22" width="7.224239307701204" fill="hsl(180, 100%, 80%)" stroke="hsl(180, 100%, 55%)" />
<g stroke="hsl(180, 100%, 40%)"><line x1="6.556483187940577" x2="7.891995427461831" y1="204" y2="204" />
<line x1="6.556483187940577" x2="6.556483187940577" y1="198" y2="210" />
<line x1="7.891995427461831" x2="7.891995427461831" y1="198" y2="210" />
</g>
</g>
<text fill="hsl(240, 100%, 40%)" y="242">Deep.deep-10 56.7 ms</text>
<g>
<title>56.7 ms ± 551 μs</title>
<rect y="248" rx="5" height="22" width="75.29595732281624" fill="hsl(240, 100%, 80%)" stroke="hsl(240, 100%, 55%)" />
<g stroke="hsl(240, 100%, 40%)"><line x1="74.56409942775565" x2="76.02781521787682" y1="259" y2="259" />
<line x1="74.56409942775565" x2="74.56409942775565" y1="253" y2="265" />
<line x1="76.02781521787682" x2="76.02781521787682" y1="253" y2="265" />
</g>
</g>
<g fill="hsl(300, 100%, 40%)">
<text y="297">Deep.deep-13</text>
<text y="297" x="858.7809766499203" text-anchor="end">646  ms</text>
</g>
<g>
<title>646  ms ±  61 ms</title>
<rect y="303" rx="5" height="22" width="858.7809766499203" fill="hsl(300, 100%, 80%)" stroke="hsl(300, 100%, 55%)" />
<g stroke="hsl(300, 100%, 40%)"><line x1="777.5619532998405" x2="940.0" y1="314" y2="314" />
<line x1="777.5619532998405" x2="777.5619532998405" y1="308" y2="320" />
<line x1="940.0" x2="940.0" y1="308" y2="320" />
</g>
</g>
</g>
</svg>
